<svg id="Layer_1" enable-background="new 0 0 512 512" viewBox="0 0 512 512" xmlns="http://www.w3.org/2000/svg"><path d="m477.21 72.909h-127.831c-.131-.229-.254-.461-.386-.689l9.393-9.393c3.124-3.124 3.124-8.189 0-11.313l-27.666-27.667c-1.5-1.5-3.535-2.343-5.657-2.343s-4.157.843-5.657 2.343l-9.394 9.393c-8.311-4.844-17.166-8.515-26.449-10.964v-13.276c0-4.418-3.582-8-8-8h-39.126c-4.418 0-8 3.582-8 8v13.275c-9.287 2.45-18.142 6.121-26.45 10.963l-9.393-9.392c-3.124-3.124-8.189-3.124-11.313 0l-27.667 27.667c-1.5 1.5-2.343 3.535-2.343 5.657s.843 4.157 2.343 5.657l9.393 9.393c-.133.228-.256.461-.387.69h-127.83c-18.632-.001-33.79 15.157-33.79 33.788v310.45c0 18.631 15.158 33.79 33.79 33.79h114.206l-24.48 42.007c-2.194 3.764-2.222 8.242-.075 11.979 2.153 3.748 6.157 6.076 10.449 6.076h242.22c4.291 0 8.294-2.328 10.449-6.075 2.147-3.736 2.12-8.213-.074-11.979l-24.479-42.008h114.204c18.631 0 33.79-15.158 33.79-33.79v-310.45c0-18.631-15.158-33.789-33.79-33.789zm-290.273-32.093 8.231 8.231c2.698 2.698 6.925 3.115 10.098.997 9.979-6.661 20.993-11.226 32.735-13.567 3.741-.746 6.435-4.03 6.435-7.845v-11.632h23.126v11.632c0 3.815 2.694 7.1 6.436 7.846 11.734 2.339 22.748 6.904 32.734 13.568 3.172 2.118 7.4 1.701 10.097-.998l8.232-8.231 16.353 16.353-8.231 8.231c-2.698 2.698-3.115 6.925-.997 10.098 6.661 9.98 11.226 20.993 13.568 32.734.746 3.741 4.03 6.435 7.845 6.435h11.632v23.126h-11.632c-3.815 0-7.1 2.695-7.846 6.437-2.338 11.732-6.903 22.746-13.568 32.734-2.117 3.173-1.699 7.4.998 10.097l8.231 8.231-16.353 16.353-8.231-8.23c-2.698-2.698-6.925-3.114-10.098-.997-9.98 6.662-20.994 11.227-32.734 13.568-3.742.746-6.436 4.03-6.436 7.845v11.631h-23.126v-11.631c0-3.815-2.694-7.1-6.437-7.846-11.734-2.339-22.748-6.904-32.735-13.568-3.173-2.117-7.399-1.7-10.097.998l-8.231 8.231-16.353-16.354 8.23-8.23c2.698-2.698 3.115-6.925.997-10.098-6.662-9.981-11.227-20.995-13.568-32.736-.747-3.742-4.031-6.436-7.846-6.436h-11.63v-23.126h11.63c3.815 0 7.1-2.694 7.846-6.436 2.339-11.734 6.904-22.747 13.569-32.735 2.118-3.173 1.7-7.4-.998-10.097l-8.231-8.231zm69.063 289.827c17.05 0 31.664 12.041 35.351 28.245h-70.701c3.686-16.204 18.3-28.245 35.35-28.245zm0-16.001c-8.774 0-15.913-7.139-15.913-15.913s7.139-15.913 15.913-15.913 15.913 7.139 15.913 15.913-7.139 15.913-15.913 15.913zm-221.21-225.733h120.344c-1.182 3.196-2.218 6.45-3.092 9.76h-13.273c-4.418 0-8 3.582-8 8v39.126c0 4.418 3.582 8 8 8h13.274c2.45 9.286 6.121 18.142 10.964 26.451l-9.392 9.392c-3.124 3.124-3.124 8.189 0 11.313l8.176 8.177-11.587 11.587c-4.747-2.805-10.276-4.421-16.178-4.421-17.597 0-31.913 14.316-31.913 31.913 0 8.305 3.191 15.876 8.409 21.56-15.84 8.057-27.191 23.968-28.595 42.682-.23 3.071.835 6.123 2.923 8.374 2.089 2.251 5.053 3.542 8.132 3.542h82.087c3.079 0 6.042-1.291 8.131-3.541s3.155-5.302 2.925-8.373c0 0 0-.001 0-.002-1.404-18.715-12.755-34.625-28.594-42.682 5.218-5.683 8.409-13.255 8.409-21.56 0-5.902-1.617-11.431-4.421-16.179l11.586-11.586 8.176 8.177c1.5 1.5 3.535 2.343 5.657 2.343s4.157-.843 5.657-2.343l9.393-9.392c8.312 4.844 17.167 8.515 26.45 10.964v13.274c0 4.418 3.582 8 8 8h11.562v16.369c-13.738 3.559-23.914 16.062-23.914 30.897 0 8.305 3.191 15.877 8.409 21.56-15.84 8.057-27.19 23.968-28.595 42.682-.23 3.071.835 6.123 2.923 8.374s5.052 3.542 8.132 3.542h82.087c3.08 0 6.044-1.291 8.132-3.542s3.154-5.303 2.923-8.374c-1.404-18.715-12.755-34.626-28.595-42.683 5.218-5.683 8.409-13.255 8.409-21.56 0-14.835-10.175-27.337-23.913-30.897v-16.369h11.563c4.418 0 8-3.582 8-8v-13.274c9.286-2.45 18.141-6.121 26.45-10.964l9.392 9.392c3.124 3.124 8.189 3.124 11.313 0l8.177-8.177 11.587 11.587c-2.804 4.747-4.421 10.276-4.421 16.178 0 8.305 3.191 15.877 8.409 21.56-15.84 8.057-27.191 23.968-28.595 42.682-.23 3.071.835 6.123 2.923 8.374s5.052 3.542 8.132 3.542h82.087c3.079 0 6.042-1.291 8.131-3.541s3.155-5.302 2.925-8.373c0 0 0-.001 0-.002-1.404-18.715-12.755-34.626-28.595-42.682 5.218-5.683 8.409-13.255 8.409-21.56 0-17.597-14.316-31.913-31.913-31.913-5.902 0-11.431 1.617-16.178 4.421l-11.587-11.587 8.176-8.176c3.124-3.124 3.125-8.189 0-11.313l-9.393-9.393c4.844-8.312 8.515-17.168 10.964-26.45h13.275c4.418 0 8-3.582 8-8v-39.126c0-4.418-3.582-8-8-8h-13.276c-.874-3.311-1.909-6.564-3.091-9.76h120.348c9.809 0 17.79 7.98 17.79 17.79v285.058h-478v-285.059c0-9.809 7.98-17.789 17.79-17.789zm115.149 159.297c0 8.774-7.139 15.913-15.913 15.913s-15.913-7.139-15.913-15.913 7.139-15.913 15.913-15.913 15.913 7.139 15.913 15.913zm-15.914 31.913c17.051 0 31.665 12.04 35.351 28.246h-70.701c3.685-16.206 18.299-28.246 35.35-28.246zm243.949 0c17.052 0 31.666 12.04 35.351 28.245h-70.701c3.685-16.205 18.299-28.245 35.35-28.245zm0-16c-8.774 0-15.913-7.139-15.913-15.913s7.139-15.913 15.913-15.913 15.913 7.139 15.913 15.913-7.138 15.913-15.913 15.913zm-7.81 230.881h-228.327l25.677-44.062h176.973zm107.046-60.062h-442.42c-9.809 0-17.79-7.98-17.79-17.79v-9.393h478v9.393c0 9.81-7.98 17.79-17.79 17.79zm-221.21-234.797c40.753 0 73.909-33.155 73.909-73.909s-33.156-73.909-73.909-73.909-73.909 33.155-73.909 73.909 33.155 73.909 73.909 73.909zm0-131.818c31.931 0 57.909 25.978 57.909 57.909s-25.978 57.909-57.909 57.909-57.909-25.978-57.909-57.909 25.977-57.909 57.909-57.909zm16.062 34.619c3.124-3.124 8.189-3.124 11.313 0l17.633 17.633c1.5 1.5 2.343 3.535 2.343 5.657s-.843 4.157-2.343 5.657l-17.633 17.633c-1.562 1.562-3.61 2.343-5.657 2.343-2.048 0-4.095-.781-5.657-2.343-3.125-3.124-3.124-8.189 0-11.313l11.976-11.976-11.976-11.976c-3.123-3.126-3.124-8.191.001-11.315zm-43.437 46.579-17.633-17.633c-3.124-3.124-3.124-8.189 0-11.313l17.633-17.633c3.124-3.124 8.189-3.124 11.313 0s3.124 8.189 0 11.313l-11.976 11.976 11.976 11.976c3.124 3.124 3.124 8.189 0 11.313-1.562 1.562-3.609 2.343-5.657 2.343s-4.094-.78-5.656-2.342zm13.508-2.448 12.278-45.823c1.144-4.268 5.534-6.798 9.798-5.657 4.268 1.144 6.801 5.53 5.657 9.798l-12.278 45.823c-.958 3.574-4.19 5.932-7.723 5.932-.686 0-1.382-.089-2.075-.274-4.268-1.145-6.8-5.532-5.657-9.799z"/></svg>